<?xml version="1.0" encoding="UTF-8" standalone="no"?>
<!DOCTYPE svg PUBLIC "-//W3C//DTD SVG 1.1//EN" "http://www.w3.org/Graphics/SVG/1.1/DTD/svg11.dtd">
<svg xmlns="http://www.w3.org/2000/svg" version="1.1" viewBox="0.00 0.00 500.00 500.00">
<g stroke-width="2.00" fill="none" stroke-linecap="butt">
<path stroke="#746d68" vector-effect="non-scaling-stroke" d="
  M 240.72 150.36
  Q 241.35 148.52 240.62 146.51
  Q 240.45 146.03 240.00 145.79
  C 235.55 143.46 231.71 150.00 231.34 153.52
  Q 231.04 156.25 229.23 158.96
  C 228.27 160.40 226.25 160.40 225.29 159.03
  Q 223.71 156.78 222.98 153.17
  C 222.61 151.33 223.64 150.26 223.69 148.53
  A 1.72 1.71 83.1 0 1 224.94 146.93
  Q 228.35 145.98 231.71 143.99
  Q 231.80 143.94 231.76 143.85
  L 231.64 143.62
  Q 231.61 143.54 231.53 143.58
  L 225.69 146.17
  A 0.69 0.69 0.0 0 1 224.73 145.45
  C 224.96 143.62 225.60 140.32 224.84 138.63
  A 1.16 1.16 0.0 0 0 222.79 138.50
  Q 221.50 140.63 221.35 143.15
  C 221.25 144.83 220.85 146.85 221.20 148.48
  Q 222.49 154.52 220.10 160.01
  A 1.80 1.79 -65.6 0 1 217.68 160.92
  Q 216.58 160.40 216.48 158.98
  Q 216.31 156.46 215.86 154.08
  C 215.43 151.76 212.93 150.89 211.54 152.91
  C 210.74 154.07 210.48 155.25 209.97 156.51
  Q 208.92 159.08 208.85 156.30
  Q 208.80 153.85 207.12 152.49
  A 1.31 1.31 0.0 0 0 205.73 152.31
  Q 203.96 153.12 203.88 155.48
  Q 203.74 159.50 203.39 163.50
  C 202.89 169.08 197.55 170.69 194.47 165.80
  Q 194.05 165.14 194.82 164.94
  C 198.57 163.97 201.22 160.28 198.62 156.80
  C 197.22 154.92 194.51 155.78 193.40 157.44
  Q 191.08 160.93 193.02 165.65
  C 195.16 170.88 202.07 171.26 203.71 165.30
  C 204.64 161.91 204.51 158.42 204.59 155.02
  Q 204.62 153.98 205.33 153.33
  A 1.10 1.10 0.0 0 1 207.13 153.84
  Q 208.59 159.02 208.87 164.97
  Q 208.87 165.13 209.03 165.17
  L 209.37 165.27
  Q 209.91 165.43 209.87 164.86
  Q 209.46 158.55 212.07 153.28
  Q 212.74 151.92 214.19 152.76
  A 1.48 1.46 14.3 0 1 214.92 153.97
  Q 215.03 156.66 215.42 159.27
  C 215.76 161.50 218.12 163.09 219.93 161.26
  C 221.16 160.03 221.63 157.60 222.12 155.97
  Q 222.41 154.99 222.72 155.96
  C 223.09 157.11 223.37 158.42 224.08 159.38
  C 225.78 161.67 229.03 161.42 230.19 158.80
  Q 230.76 157.51 231.57 156.40
  Q 232.06 155.73 232.00 156.56
  L 231.97 156.97
  Q 231.93 157.50 232.18 157.97
  Q 233.68 160.74 236.90 159.98
  C 238.27 159.66 239.12 158.34 239.94 157.30
  Q 240.43 156.68 240.75 157.40
  L 241.03 158.06
  A 1.55 1.50 7.2 0 0 241.51 158.66
  C 244.43 160.87 246.03 155.97 247.06 154.39
  Q 247.44 153.80 247.44 154.50
  Q 247.46 156.52 248.62 158.53
  C 249.71 160.42 252.06 160.36 253.32 158.75
  Q 255.69 155.69 257.04 151.56
  Q 257.10 151.36 256.91 151.26
  L 256.67 151.13
  Q 256.58 151.08 256.54 151.18
  C 255.60 153.48 254.21 157.48 252.05 158.84
  A 1.75 1.74 -28.1 0 1 249.54 158.08
  Q 248.45 155.68 248.40 152.60
  Q 248.36 150.79 249.49 148.98
  C 251.89 145.12 255.22 138.17 254.91 133.27
  A 2.14 2.12 -84.6 0 0 253.33 131.34
  C 251.04 130.74 249.27 134.43 248.77 136.09
  Q 246.76 142.73 247.14 150.08
  C 247.29 152.89 245.94 155.33 244.55 157.63
  A 1.60 1.59 43.0 0 1 241.89 157.72
  C 240.23 155.41 242.70 152.46 240.72 150.36"
/>
<path stroke="#746d68" vector-effect="non-scaling-stroke" d="
  M 240.72 150.36
  Q 239.84 151.27 238.73 151.76
  A 0.28 0.28 0.0 0 1 238.37 151.62
  L 238.26 151.39
  A 0.05 0.05 0.0 0 1 238.29 151.32
  Q 240.36 150.72 240.36 148.33
  C 240.35 146.65 239.14 145.37 237.48 146.06
  C 233.53 147.72 232.30 152.41 232.99 156.34
  Q 233.28 157.98 234.47 158.88
  C 236.67 160.56 238.36 158.53 239.50 156.86
  C 240.63 155.22 240.51 152.36 240.72 150.36"
/>
<path stroke="#746d68" vector-effect="non-scaling-stroke" d="
  M 266.02 165.57
  C 261.30 163.00 260.33 157.98 264.86 154.90
  A 0.32 0.31 66.1 0 0 264.98 154.57
  L 264.89 154.19
  Q 264.85 154.02 264.71 154.12
  Q 260.73 156.81 261.20 160.52
  C 261.96 166.42 269.73 168.61 274.64 168.08
  Q 282.69 167.22 283.51 159.22
  C 284.45 150.10 264.71 147.81 270.27 137.99
  Q 272.84 133.45 278.59 134.19
  C 286.17 135.17 286.34 141.10 282.22 146.11
  Q 282.15 146.19 282.23 146.27
  L 282.45 146.46
  A 0.27 0.26 -48.7 0 0 282.83 146.43
  C 293.06 134.50 273.58 127.96 268.91 138.63
  C 266.96 143.10 268.82 146.69 272.37 149.45
  C 276.46 152.64 285.38 157.50 280.57 164.15
  C 277.38 168.56 270.16 167.83 266.02 165.57"
/>
<path stroke="#746d68" vector-effect="non-scaling-stroke" d="
  M 295.56 166.01
  Q 295.56 169.71 299.24 170.46
  C 300.40 170.69 301.68 169.74 302.78 169.39
  A 0.44 0.43 -6.3 0 1 303.35 169.84
  C 303.20 171.57 304.82 173.47 306.65 172.51
  C 309.35 171.09 310.91 169.10 313.29 167.27
  Q 314.27 166.51 314.85 165.37
  Q 315.61 163.88 316.32 162.46
  Q 316.62 161.86 316.06 161.50
  L 315.84 161.37
  Q 315.59 161.21 315.40 161.45
  C 314.14 163.06 314.03 165.01 312.58 166.51
  Q 309.62 169.58 306.71 171.75
  A 1.33 1.32 -45.6 0 1 305.16 171.77
  C 302.57 169.93 306.53 166.63 306.83 164.40
  Q 307.00 163.17 307.75 162.11
  C 308.71 160.76 308.21 158.71 306.78 157.94
  C 303.25 156.06 298.65 159.27 296.79 162.15
  Q 295.06 164.83 292.04 165.99
  C 290.20 166.70 288.83 165.14 288.77 163.40
  Q 288.65 159.32 290.63 155.90
  A 1.35 1.35 0.0 0 0 290.80 155.02
  C 290.46 152.55 293.84 148.31 295.35 146.36
  Q 295.86 145.69 296.66 145.58
  A 0.69 0.69 0.0 0 1 297.35 146.63
  L 293.93 152.08
  Q 293.68 152.48 293.21 152.41
  Q 292.75 152.35 292.29 152.36
  Q 291.42 152.38 292.12 152.89
  Q 292.77 153.36 293.79 153.14
  Q 294.25 153.04 294.47 152.62
  C 295.60 150.55 297.56 148.37 297.98 145.97
  A 1.13 1.13 0.0 0 0 296.40 144.75
  C 294.16 145.76 292.20 149.00 291.00 151.01
  Q 290.63 151.62 290.04 151.22
  Q 288.16 149.95 286.64 148.29
  Q 286.61 148.25 286.57 148.28
  L 286.35 148.47
  Q 286.26 148.55 286.33 148.66
  Q 287.60 150.65 289.70 151.52
  A 0.98 0.98 0.0 0 1 290.24 152.80
  C 289.08 155.65 285.43 165.00 289.59 166.65
  Q 291.95 167.58 294.53 165.51
  Q 295.56 164.68 295.56 166.01"
/>
<path stroke="#746d68" vector-effect="non-scaling-stroke" d="
  M 216.68 146.34
  Q 215.39 146.09 216.51 146.78
  Q 218.17 147.81 219.93 147.44
  Q 221.19 147.18 219.93 146.95
  L 216.68 146.34"
/>
<path stroke="#9a7e75" vector-effect="non-scaling-stroke" d="
  M 178.99 181.41
  Q 178.53 181.88 178.07 182.01
  Q 177.56 182.16 177.25 181.74
  Q 168.93 170.66 164.67 157.45
  Q 164.64 157.34 164.53 157.32
  Q 164.37 157.28 164.29 157.39
  Q 164.21 157.50 164.22 157.62
  C 164.56 166.15 170.31 176.05 175.82 181.66
  Q 177.79 183.67 174.99 183.85
  Q 173.25 183.96 172.71 184.00
  Q 169.89 184.18 168.41 181.78
  Q 166.97 179.45 166.70 176.71
  Q 166.63 175.97 166.41 176.68
  Q 166.14 177.51 166.22 178.40
  C 166.76 184.44 171.42 186.65 176.48 184.00
  Q 176.97 183.74 177.52 183.68
  Q 177.73 183.66 177.91 183.73
  Q 178.68 183.99 178.67 183.18
  Q 178.65 182.23 179.31 181.90"
/>
<path stroke="#746d68" vector-effect="non-scaling-stroke" d="
  M 179.31 181.90
  Q 186.98 174.60 186.53 164.00
  C 186.20 155.97 180.46 145.59 170.61 148.96
  Q 161.05 152.23 157.75 161.96
  Q 157.69 162.15 157.88 162.22
  L 158.14 162.32
  Q 158.32 162.38 158.38 162.20
  C 160.36 155.74 167.33 148.08 174.85 149.68
  C 182.07 151.21 185.08 160.20 185.06 166.76
  Q 185.04 175.40 178.99 181.41"
/>
<path stroke="#341c17" vector-effect="non-scaling-stroke" d="
  M 179.31 181.90
  L 178.99 181.41"
/>
<path stroke="#746d68" vector-effect="non-scaling-stroke" d="
  M 301.7272 153.5577
  A 3.43 0.34 2.3 0 0 298.3136 153.0803
  A 3.43 0.34 2.3 0 0 294.8728 153.2823
  A 3.43 0.34 2.3 0 0 298.2864 153.7597
  A 3.43 0.34 2.3 0 0 301.7272 153.5577"
/>
<path stroke="#746d68" vector-effect="non-scaling-stroke" d="
  M 258.92 160.27
  A 1.30 1.30 0.0 0 0 257.62 158.97
  A 1.30 1.30 0.0 0 0 256.32 160.27
  A 1.30 1.30 0.0 0 0 257.62 161.57
  A 1.30 1.30 0.0 0 0 258.92 160.27"
/>
<path stroke="#746d68" vector-effect="non-scaling-stroke" d="
  M 321.83 176.70
  C 321.19 177.91 320.40 179.64 320.64 181.00
  C 321.72 187.11 329.40 182.32 331.88 179.87
  Q 331.98 179.77 331.90 179.66
  L 331.75 179.45
  Q 331.72 179.40 331.66 179.44
  C 329.98 180.63 323.60 185.59 322.01 181.89
  C 320.75 178.96 324.50 173.86 326.34 172.70
  Q 326.75 172.44 326.68 171.96
  Q 326.57 171.17 327.06 170.53
  C 328.63 168.45 331.83 164.85 334.64 164.86
  A 0.49 0.49 0.0 0 1 334.99 165.69
  Q 332.54 168.14 330.07 170.02
  Q 329.49 170.46 328.76 170.37
  Q 328.18 170.30 328.16 170.89
  Q 328.16 170.97 328.12 171.05
  Q 327.82 171.78 328.58 171.56
  Q 329.72 171.23 330.74 171.85
  Q 333.43 173.52 336.54 173.81
  Q 336.80 173.84 336.83 173.58
  L 336.83 173.57
  Q 336.86 173.38 336.66 173.33
  Q 333.98 172.77 331.34 171.48
  Q 329.85 170.76 331.22 169.83
  Q 334.35 167.71 335.60 165.12
  Q 335.99 164.31 335.10 164.19
  C 332.30 163.81 329.34 166.51 327.50 168.34
  A 0.73 0.73 0.0 0 1 326.41 168.27
  L 323.91 165.05
  Q 323.82 164.93 323.70 165.02
  L 323.48 165.20
  Q 323.33 165.32 323.42 165.49
  Q 324.38 167.27 325.93 168.45
  Q 326.57 168.92 326.22 169.63
  Q 323.58 174.98 317.09 177.57
  C 314.33 178.67 312.48 175.83 313.62 173.42
  Q 315.63 169.14 319.32 167.62
  Q 319.67 167.48 319.46 167.17
  L 319.29 166.90
  Q 319.23 166.82 319.14 166.85
  L 316.98 167.67
  Q 316.31 167.93 315.85 167.38
  Q 315.57 167.04 315.10 166.97
  Q 314.65 166.91 314.94 167.26
  Q 315.27 167.65 315.76 167.75
  A 0.54 0.54 0.0 0 1 316.00 168.70
  C 313.49 170.80 310.02 175.36 313.75 178.14
  C 316.23 179.97 319.24 177.27 321.36 176.22
  Q 322.34 175.73 321.83 176.70"
/>
<path stroke="#9a7e75" vector-effect="non-scaling-stroke" d="
  M 131.27 242.48
  L 131.62 242.51
  Q 132.11 242.56 132.16 242.07
  Q 134.79 216.04 148.57 193.23
  A 0.15 0.14 14.5 0 0 148.44 193.01
  L 147.12 193.06
  A 0.58 0.57 14.6 0 0 146.65 193.33
  Q 133.22 215.53 130.60 241.66
  Q 130.52 242.41 131.27 242.48"
/>
<path stroke="#9a7e75" vector-effect="non-scaling-stroke" d="
  M 344.78 193.62
  C 353.99 208.56 359.26 224.66 360.90 241.89
  Q 360.98 242.77 361.86 242.68
  L 362.12 242.66
  A 0.45 0.44 84.9 0 0 362.52 242.17
  Q 359.96 216.03 346.56 193.58
  Q 346.16 192.92 345.39 193.01
  L 345.05 193.06
  Q 344.48 193.13 344.78 193.62"
/>
<path stroke="#9a7e75" vector-effect="non-scaling-stroke" d="
  M 142.08 222.77
  Q 139.34 233.75 138.49 242.80
  Q 138.47 243.05 138.72 243.07
  L 138.99 243.10
  Q 139.52 243.15 139.55 242.61
  Q 139.92 236.35 141.21 230.86
  Q 142.90 223.62 145.97 215.06
  Q 149.37 205.58 154.51 197.60
  Q 154.63 197.41 154.47 197.26
  L 154.23 197.02
  Q 153.89 196.69 153.65 197.10
  Q 146.60 209.15 142.81 220.26
  Q 142.40 221.45 142.08 222.77"
/>
<path stroke="#9a7e75" vector-effect="non-scaling-stroke" d="
  M 355.52 235.64
  Q 351.99 214.82 341.16 196.93
  Q 341.06 196.76 340.89 196.87
  L 340.65 197.01
  Q 340.33 197.21 340.53 197.53
  Q 350.09 213.10 353.64 230.18
  Q 354.91 236.31 355.71 243.40
  Q 355.73 243.65 355.98 243.62
  L 356.28 243.58
  Q 356.76 243.51 356.69 243.03
  Q 356.15 239.37 355.52 235.64"
/>
<path stroke="#e2ddd8" vector-effect="non-scaling-stroke" d="
  M 236.90 271.74
  C 236.75 266.23 239.54 259.13 245.89 258.83
  Q 252.65 258.51 254.89 264.26
  Q 256.85 269.29 256.31 275.55
  C 255.84 280.85 255.51 286.45 256.09 291.58
  Q 256.39 294.26 258.27 296.67
  A 1.72 1.71 -13.0 0 0 259.25 297.28
  Q 263.10 298.12 265.35 294.56
  Q 268.85 289.03 269.88 283.44
  C 270.96 277.53 271.33 270.64 270.99 264.35
  Q 270.39 253.10 275.96 241.49
  Q 278.57 236.07 278.63 227.13
  Q 278.66 222.91 277.10 220.15
  C 275.11 216.64 271.62 213.35 267.44 213.01
  C 262.08 212.58 257.80 213.56 252.89 215.20
  C 247.30 217.06 240.20 215.07 234.61 213.67
  C 225.06 211.28 216.29 214.40 214.98 225.00
  Q 214.78 226.56 215.07 231.48
  C 215.38 236.90 217.68 241.50 219.53 246.45
  Q 221.69 252.20 221.93 259.25
  C 222.32 271.09 221.18 284.47 228.27 294.72
  Q 230.42 297.82 234.71 296.80
  A 1.43 1.42 4.6 0 0 235.68 295.98
  Q 238.09 290.31 237.69 285.54
  Q 237.08 278.39 236.90 271.74"
/>
<path stroke="#9a7e75" vector-effect="non-scaling-stroke" d="
  M 135.5368 254.0141
  A 2.96 2.96 0.0 0 0 132.5357 251.0957
  L 130.4359 251.1250
  A 2.96 2.96 0.0 0 0 127.5175 254.1261
  L 127.5432 255.9659
  A 2.96 2.96 0.0 0 0 130.5443 258.8843
  L 132.6441 258.8550
  A 2.96 2.96 0.0 0 0 135.5625 255.8539
  L 135.5368 254.0141"
/>
<path stroke="#9a7e75" vector-effect="non-scaling-stroke" d="
  M 366.4190 254.1452
  A 3.22 3.22 0.0 0 0 363.0724 251.0570
  L 361.2738 251.1293
  A 3.22 3.22 0.0 0 0 358.1856 254.4759
  L 358.2410 255.8548
  A 3.22 3.22 0.0 0 0 361.5876 258.9430
  L 363.3862 258.8707
  A 3.22 3.22 0.0 0 0 366.4744 255.5241
  L 366.4190 254.1452"
/>
<path stroke="#9a7e75" vector-effect="non-scaling-stroke" d="
  M 143.03 286.91
  Q 154.16 321.21 183.08 341.98
  A 0.27 0.26 -53.4 0 0 183.45 341.92
  L 183.60 341.70
  Q 183.73 341.52 183.55 341.40
  Q 178.69 338.06 174.41 334.09
  Q 149.81 311.27 141.95 279.22
  Q 140.56 273.57 139.72 267.62
  A 0.29 0.29 0.0 0 0 139.40 267.37
  L 138.89 267.43
  A 0.25 0.25 0.0 0 0 138.67 267.72
  Q 140.06 277.77 143.03 286.91"
/>
<path stroke="#9a7e75" vector-effect="non-scaling-stroke" d="
  M 354.73 275.47
  Q 355.54 271.69 356.12 267.86
  Q 356.15 267.69 355.98 267.66
  L 355.71 267.62
  Q 355.36 267.57 355.31 267.92
  Q 348.67 311.98 313.75 339.71
  Q 312.63 340.59 311.37 341.34
  Q 311.03 341.55 311.24 341.89
  L 311.39 342.13
  A 0.13 0.12 -34.3 0 0 311.57 342.16
  Q 345.78 317.07 354.73 275.47"
/>
<path stroke="#9a7e75" vector-effect="non-scaling-stroke" d="
  M 131.07 268.53
  Q 131.58 273.44 132.70 278.31
  Q 142.23 320.03 176.50 346.48
  Q 177.51 347.25 179.01 347.19
  Q 180.59 347.13 179.24 346.30
  Q 174.83 343.58 170.42 339.51
  C 149.79 320.49 136.34 296.46 132.88 269.04
  Q 132.78 268.24 131.98 268.08
  L 131.64 268.01
  Q 131.00 267.88 131.07 268.53"
/>
<path stroke="#9a7e75" vector-effect="non-scaling-stroke" d="
  M 358.64 279.15
  Q 348.36 321.22 313.35 346.79
  Q 312.42 347.47 313.57 347.33
  Q 316.09 347.02 318.17 345.27
  C 328.87 336.30 338.26 326.57 345.52 314.82
  Q 358.82 293.31 362.14 268.59
  Q 362.23 267.94 361.58 267.98
  L 361.18 268.01
  Q 360.48 268.05 360.40 268.75
  Q 359.71 274.80 358.64 279.15"
/>
<path stroke="#746d68" vector-effect="non-scaling-stroke" d="
  M 196.4332 359.5216
  A 4.92 4.50 123.1 0 0 202.8897 357.8575
  A 4.92 4.50 123.1 0 0 201.8068 351.2784
  A 4.92 4.50 123.1 0 0 195.3503 352.9425
  A 4.92 4.50 123.1 0 0 196.4332 359.5216"
/>
<path stroke="#746d68" vector-effect="non-scaling-stroke" d="
  M 293.50 351.99
  C 295.02 353.26 296.47 355.00 298.22 355.91
  Q 299.20 356.42 300.20 357.01
  Q 301.18 357.58 300.52 356.66
  Q 299.81 355.66 298.45 355.12
  Q 297.94 354.92 297.51 354.57
  L 292.99 350.86
  A 0.62 0.62 0.0 0 0 291.99 351.43
  L 293.39 361.01
  Q 293.42 361.17 293.59 361.15
  L 293.88 361.12
  Q 293.96 361.11 293.95 361.03
  C 293.75 359.07 293.90 357.24 293.18 355.31
  Q 292.61 353.81 292.81 352.26
  Q 292.91 351.50 293.50 351.99"
/>
<path stroke="#746d68" vector-effect="non-scaling-stroke" d="
  M 286.6825 354.4523
  A 0.32 0.32 0.0 0 0 286.2523 354.3117
  L 286.2167 354.3298
  A 0.32 0.32 0.0 0 0 286.0761 354.7599
  L 290.0575 362.6077
  A 0.32 0.32 0.0 0 0 290.4877 362.7483
  L 290.5233 362.7302
  A 0.32 0.32 0.0 0 0 290.6639 362.3001
  L 286.6825 354.4523"
/>
<path stroke="#746d68" vector-effect="non-scaling-stroke" d="
  M 207.46 355.19
  L 204.07 362.81
  A 0.75 0.75 0.0 0 0 204.45 363.80
  L 206.73 364.81
  A 4.58 4.39 24.0 0 0 212.70 362.66
  L 213.13 361.70
  A 4.58 4.39 24.0 0 0 210.73 355.82
  L 208.45 354.81
  A 0.75 0.75 0.0 0 0 207.46 355.19"
/>
<path stroke="#746d68" vector-effect="non-scaling-stroke" d="
  M 284.99 361.46
  A 2.02 2.02 0.0 0 1 285.19 364.62
  Q 284.22 365.49 282.46 365.76
  C 278.28 366.41 275.94 359.88 279.88 357.78
  C 280.91 357.22 282.29 357.59 283.41 357.76
  Q 283.76 357.81 283.79 357.45
  Q 283.80 357.25 283.61 357.19
  C 279.39 355.85 276.14 358.79 277.46 362.92
  C 278.23 365.36 280.95 367.30 283.52 366.18
  Q 285.06 365.50 286.46 364.45
  Q 286.86 364.14 286.69 363.66
  L 285.86 361.40
  Q 285.62 360.77 284.97 360.92
  L 283.32 361.31
  Q 283.31 361.31 283.32 361.32
  L 283.55 361.55
  Q 283.68 361.68 283.85 361.61
  Q 284.71 361.27 284.99 361.46"
/>
<path stroke="#746d68" vector-effect="non-scaling-stroke" d="
  M 218.0523 369.0672
  A 4.93 4.53 104.3 0 0 223.6596 365.4089
  A 4.93 4.53 104.3 0 0 220.4877 359.5128
  A 4.93 4.53 104.3 0 0 214.8804 363.1711
  A 4.93 4.53 104.3 0 0 218.0523 369.0672"
/>
<path stroke="#746d68" vector-effect="non-scaling-stroke" d="
  M 272.1879 370.0463
  A 4.91 4.50 76.6 0 0 275.4275 364.2271
  A 4.91 4.50 76.6 0 0 269.9121 360.4937
  A 4.91 4.50 76.6 0 0 266.6725 366.3129
  A 4.91 4.50 76.6 0 0 272.1879 370.0463"
/>
<path stroke="#746d68" vector-effect="non-scaling-stroke" d="
  M 233.24 370.93
  A 0.15 0.15 0.0 0 1 232.96 370.97
  L 227.65 361.32
  A 0.15 0.15 0.0 0 0 227.37 361.37
  L 225.65 370.91
  A 0.15 0.15 0.0 0 0 225.77 371.08
  L 226.22 371.16
  A 0.15 0.15 0.0 0 0 226.39 371.03
  L 227.69 363.27
  A 0.15 0.15 0.0 0 1 227.97 363.22
  L 233.34 372.99
  A 0.15 0.15 0.0 0 0 233.62 372.94
  L 235.25 363.01
  A 0.15 0.15 0.0 0 0 235.12 362.84
  L 234.77 362.80
  A 0.15 0.15 0.0 0 0 234.61 362.93
  L 233.24 370.93"
/>
<path stroke="#746d68" vector-effect="non-scaling-stroke" d="
  M 265.75 371.19
  A 0.15 0.15 0.0 0 0 265.59 371.11
  L 260.08 371.99
  A 0.15 0.15 0.0 0 1 259.91 371.86
  L 258.59 363.20
  A 0.15 0.15 0.0 0 0 258.39 363.08
  L 257.97 363.24
  A 0.15 0.15 0.0 0 0 257.87 363.40
  L 259.31 372.47
  A 0.15 0.15 0.0 0 0 259.48 372.60
  L 265.77 371.70
  A 0.15 0.15 0.0 0 0 265.88 371.49
  L 265.75 371.19"
/>
<path stroke="#746d68" vector-effect="non-scaling-stroke" d="
  M 240.73 364.54
  L 240.24 372.95
  Q 240.23 373.14 240.41 373.16
  L 240.74 373.19
  Q 240.89 373.21 240.90 373.05
  L 241.36 365.44
  Q 241.50 363.25 243.56 364.00
  L 244.52 364.35
  Q 244.73 364.42 244.75 364.20
  L 244.79 363.79
  Q 244.81 363.58 244.60 363.56
  Q 240.92 363.20 237.76 363.26
  Q 236.54 363.28 237.69 363.69
  Q 238.70 364.04 239.92 363.82
  A 0.69 0.69 0.0 0 1 240.73 364.54"
/>
<path stroke="#746d68" vector-effect="non-scaling-stroke" d="
  M 251.5649 373.1720
  A 4.94 4.52 83.9 0 0 255.5344 367.7797
  A 4.94 4.52 83.9 0 0 250.5151 363.3480
  A 4.94 4.52 83.9 0 0 246.5456 368.7403
  A 4.94 4.52 83.9 0 0 251.5649 373.1720"
/>
<path stroke="#746d68" vector-effect="non-scaling-stroke" d="
  M 254.86 132.72
  L 251.35 131.75
  A 0.15 0.15 0.0 0 0 251.17 131.86
  L 250.61 133.88
  A 15.23 1.97 -74.5 0 0 248.43 149.08
  L 248.43 149.08
  A 15.23 1.97 -74.5 0 0 254.40 134.93
  L 254.96 132.91
  A 0.15 0.15 0.0 0 0 254.86 132.72"
/>
<path stroke="#746d68" vector-effect="non-scaling-stroke" d="
  M 222.4907 149.9009
  A 5.59 0.99 97.6 0 0 224.2113 144.4909
  A 5.59 0.99 97.6 0 0 223.9693 138.8191
  A 5.59 0.99 97.6 0 0 222.2487 144.2291
  A 5.59 0.99 97.6 0 0 222.4907 149.9009"
/>
<path stroke="#746d68" vector-effect="non-scaling-stroke" d="
  M 194.5347 164.1912
  A 4.08 2.65 109.7 0 0 198.4049 161.2433
  A 4.08 2.65 109.7 0 0 197.2853 156.5088
  A 4.08 2.65 109.7 0 0 193.4151 159.4567
  A 4.08 2.65 109.7 0 0 194.5347 164.1912"
/>
<path stroke="#746d68" vector-effect="non-scaling-stroke" d="
  M 304.47 163.30
  Q 304.95 163.00 305.49 163.00
  Q 306.06 163.00 306.48 162.60
  Q 307.18 161.93 307.45 161.12
  A 2.16 2.16 0.0 0 0 305.68 158.30
  C 301.09 157.68 297.26 162.47 296.93 166.53
  Q 296.73 168.95 299.09 169.85
  Q 299.65 170.06 300.17 169.76
  C 301.69 168.87 303.24 168.95 304.26 167.27
  Q 305.11 165.88 306.11 164.63
  Q 306.60 164.02 305.85 163.81
  Q 305.26 163.66 304.61 163.71
  Q 303.71 163.78 304.47 163.30"
/>
<path stroke="#746d68" vector-effect="non-scaling-stroke" d="
  M 196.7762 359.0453
  A 4.32 3.81 122.7 0 0 202.3162 357.4683
  A 4.32 3.81 122.7 0 0 201.4438 351.7747
  A 4.32 3.81 122.7 0 0 195.9038 353.3517
  A 4.32 3.81 122.7 0 0 196.7762 359.0453"
/>
<path stroke="#746d68" vector-effect="non-scaling-stroke" d="
  M 207.91 355.99
  L 204.94 362.51
  A 0.76 0.76 0.0 0 0 205.31 363.51
  L 206.82 364.20
  A 4.04 3.84 24.5 0 0 212.09 362.38
  L 212.51 361.47
  A 4.04 3.84 24.5 0 0 210.42 356.30
  L 208.91 355.62
  A 0.76 0.76 0.0 0 0 207.91 355.99"
/>
<path stroke="#746d68" vector-effect="non-scaling-stroke" d="
  M 218.1711 368.4605
  A 4.32 3.82 104.6 0 0 222.9566 365.2429
  A 4.32 3.82 104.6 0 0 220.3489 360.0995
  A 4.32 3.82 104.6 0 0 215.5634 363.3171
  A 4.32 3.82 104.6 0 0 218.1711 368.4605"
/>
<path stroke="#746d68" vector-effect="non-scaling-stroke" d="
  M 272.1559 369.4077
  A 4.29 3.82 75.2 0 0 274.7533 364.2842
  A 4.29 3.82 75.2 0 0 269.9641 361.1123
  A 4.29 3.82 75.2 0 0 267.3667 366.2358
  A 4.29 3.82 75.2 0 0 272.1559 369.4077"
/>
<path stroke="#746d68" vector-effect="non-scaling-stroke" d="
  M 251.2666 372.6041
  A 4.33 3.84 87.0 0 0 254.8747 368.0790
  A 4.33 3.84 87.0 0 0 250.8134 363.9559
  A 4.33 3.84 87.0 0 0 247.2053 368.4810
  A 4.33 3.84 87.0 0 0 251.2666 372.6041"
/>
</g>
<path fill="#d9cfc6" d="
  M 0.00 0.00
  L 500.00 0.00
  L 500.00 500.00
  L 0.00 500.00
  L 0.00 0.00
  Z
  M 240.72 150.36
  Q 241.35 148.52 240.62 146.51
  Q 240.45 146.03 240.00 145.79
  C 235.55 143.46 231.71 150.00 231.34 153.52
  Q 231.04 156.25 229.23 158.96
  C 228.27 160.40 226.25 160.40 225.29 159.03
  Q 223.71 156.78 222.98 153.17
  C 222.61 151.33 223.64 150.26 223.69 148.53
  A 1.72 1.71 83.1 0 1 224.94 146.93
  Q 228.35 145.98 231.71 143.99
  Q 231.80 143.94 231.76 143.85
  L 231.64 143.62
  Q 231.61 143.54 231.53 143.58
  L 225.69 146.17
  A 0.69 0.69 0.0 0 1 224.73 145.45
  C 224.96 143.62 225.60 140.32 224.84 138.63
  A 1.16 1.16 0.0 0 0 222.79 138.50
  Q 221.50 140.63 221.35 143.15
  C 221.25 144.83 220.85 146.85 221.20 148.48
  Q 222.49 154.52 220.10 160.01
  A 1.80 1.79 -65.6 0 1 217.68 160.92
  Q 216.58 160.40 216.48 158.98
  Q 216.31 156.46 215.86 154.08
  C 215.43 151.76 212.93 150.89 211.54 152.91
  C 210.74 154.07 210.48 155.25 209.97 156.51
  Q 208.92 159.08 208.85 156.30
  Q 208.80 153.85 207.12 152.49
  A 1.31 1.31 0.0 0 0 205.73 152.31
  Q 203.96 153.12 203.88 155.48
  Q 203.74 159.50 203.39 163.50
  C 202.89 169.08 197.55 170.69 194.47 165.80
  Q 194.05 165.14 194.82 164.94
  C 198.57 163.97 201.22 160.28 198.62 156.80
  C 197.22 154.92 194.51 155.78 193.40 157.44
  Q 191.08 160.93 193.02 165.65
  C 195.16 170.88 202.07 171.26 203.71 165.30
  C 204.64 161.91 204.51 158.42 204.59 155.02
  Q 204.62 153.98 205.33 153.33
  A 1.10 1.10 0.0 0 1 207.13 153.84
  Q 208.59 159.02 208.87 164.97
  Q 208.87 165.13 209.03 165.17
  L 209.37 165.27
  Q 209.91 165.43 209.87 164.86
  Q 209.46 158.55 212.07 153.28
  Q 212.74 151.92 214.19 152.76
  A 1.48 1.46 14.3 0 1 214.92 153.97
  Q 215.03 156.66 215.42 159.27
  C 215.76 161.50 218.12 163.09 219.93 161.26
  C 221.16 160.03 221.63 157.60 222.12 155.97
  Q 222.41 154.99 222.72 155.96
  C 223.09 157.11 223.37 158.42 224.08 159.38
  C 225.78 161.67 229.03 161.42 230.19 158.80
  Q 230.76 157.51 231.57 156.40
  Q 232.06 155.73 232.00 156.56
  L 231.97 156.97
  Q 231.93 157.50 232.18 157.97
  Q 233.68 160.74 236.90 159.98
  C 238.27 159.66 239.12 158.34 239.94 157.30
  Q 240.43 156.68 240.75 157.40
  L 241.03 158.06
  A 1.55 1.50 7.2 0 0 241.51 158.66
  C 244.43 160.87 246.03 155.97 247.06 154.39
  Q 247.44 153.80 247.44 154.50
  Q 247.46 156.52 248.62 158.53
  C 249.71 160.42 252.06 160.36 253.32 158.75
  Q 255.69 155.69 257.04 151.56
  Q 257.10 151.36 256.91 151.26
  L 256.67 151.13
  Q 256.58 151.08 256.54 151.18
  C 255.60 153.48 254.21 157.48 252.05 158.84
  A 1.75 1.74 -28.1 0 1 249.54 158.08
  Q 248.45 155.68 248.40 152.60
  Q 248.36 150.79 249.49 148.98
  C 251.89 145.12 255.22 138.17 254.91 133.27
  A 2.14 2.12 -84.6 0 0 253.33 131.34
  C 251.04 130.74 249.27 134.43 248.77 136.09
  Q 246.76 142.73 247.14 150.08
  C 247.29 152.89 245.94 155.33 244.55 157.63
  A 1.60 1.59 43.0 0 1 241.89 157.72
  C 240.23 155.41 242.70 152.46 240.72 150.36
  Z
  M 266.02 165.57
  C 261.30 163.00 260.33 157.98 264.86 154.90
  A 0.32 0.31 66.1 0 0 264.98 154.57
  L 264.89 154.19
  Q 264.85 154.02 264.71 154.12
  Q 260.73 156.81 261.20 160.52
  C 261.96 166.42 269.73 168.61 274.64 168.08
  Q 282.69 167.22 283.51 159.22
  C 284.45 150.10 264.71 147.81 270.27 137.99
  Q 272.84 133.45 278.59 134.19
  C 286.17 135.17 286.34 141.10 282.22 146.11
  Q 282.15 146.19 282.23 146.27
  L 282.45 146.46
  A 0.27 0.26 -48.7 0 0 282.83 146.43
  C 293.06 134.50 273.58 127.96 268.91 138.63
  C 266.96 143.10 268.82 146.69 272.37 149.45
  C 276.46 152.64 285.38 157.50 280.57 164.15
  C 277.38 168.56 270.16 167.83 266.02 165.57
  Z
  M 295.56 166.01
  Q 295.56 169.71 299.24 170.46
  C 300.40 170.69 301.68 169.74 302.78 169.39
  A 0.44 0.43 -6.3 0 1 303.35 169.84
  C 303.20 171.57 304.82 173.47 306.65 172.51
  C 309.35 171.09 310.91 169.10 313.29 167.27
  Q 314.27 166.51 314.85 165.37
  Q 315.61 163.88 316.32 162.46
  Q 316.62 161.86 316.06 161.50
  L 315.84 161.37
  Q 315.59 161.21 315.40 161.45
  C 314.14 163.06 314.03 165.01 312.58 166.51
  Q 309.62 169.58 306.71 171.75
  A 1.33 1.32 -45.6 0 1 305.16 171.77
  C 302.57 169.93 306.53 166.63 306.83 164.40
  Q 307.00 163.17 307.75 162.11
  C 308.71 160.76 308.21 158.71 306.78 157.94
  C 303.25 156.06 298.65 159.27 296.79 162.15
  Q 295.06 164.83 292.04 165.99
  C 290.20 166.70 288.83 165.14 288.77 163.40
  Q 288.65 159.32 290.63 155.90
  A 1.35 1.35 0.0 0 0 290.80 155.02
  C 290.46 152.55 293.84 148.31 295.35 146.36
  Q 295.86 145.69 296.66 145.58
  A 0.69 0.69 0.0 0 1 297.35 146.63
  L 293.93 152.08
  Q 293.68 152.48 293.21 152.41
  Q 292.75 152.35 292.29 152.36
  Q 291.42 152.38 292.12 152.89
  Q 292.77 153.36 293.79 153.14
  Q 294.25 153.04 294.47 152.62
  C 295.60 150.55 297.56 148.37 297.98 145.97
  A 1.13 1.13 0.0 0 0 296.40 144.75
  C 294.16 145.76 292.20 149.00 291.00 151.01
  Q 290.63 151.62 290.04 151.22
  Q 288.16 149.95 286.64 148.29
  Q 286.61 148.25 286.57 148.28
  L 286.35 148.47
  Q 286.26 148.55 286.33 148.66
  Q 287.60 150.65 289.70 151.52
  A 0.98 0.98 0.0 0 1 290.24 152.80
  C 289.08 155.65 285.43 165.00 289.59 166.65
  Q 291.95 167.58 294.53 165.51
  Q 295.56 164.68 295.56 166.01
  Z
  M 216.68 146.34
  Q 215.39 146.09 216.51 146.78
  Q 218.17 147.81 219.93 147.44
  Q 221.19 147.18 219.93 146.95
  L 216.68 146.34
  Z
  M 178.99 181.41
  Q 178.53 181.88 178.07 182.01
  Q 177.56 182.16 177.25 181.74
  Q 168.93 170.66 164.67 157.45
  Q 164.64 157.34 164.53 157.32
  Q 164.37 157.28 164.29 157.39
  Q 164.21 157.50 164.22 157.62
  C 164.56 166.15 170.31 176.05 175.82 181.66
  Q 177.79 183.67 174.99 183.85
  Q 173.25 183.96 172.71 184.00
  Q 169.89 184.18 168.41 181.78
  Q 166.97 179.45 166.70 176.71
  Q 166.63 175.97 166.41 176.68
  Q 166.14 177.51 166.22 178.40
  C 166.76 184.44 171.42 186.65 176.48 184.00
  Q 176.97 183.74 177.52 183.68
  Q 177.73 183.66 177.91 183.73
  Q 178.68 183.99 178.67 183.18
  Q 178.65 182.23 179.31 181.90
  Q 186.98 174.60 186.53 164.00
  C 186.20 155.97 180.46 145.59 170.61 148.96
  Q 161.05 152.23 157.75 161.96
  Q 157.69 162.15 157.88 162.22
  L 158.14 162.32
  Q 158.32 162.38 158.38 162.20
  C 160.36 155.74 167.33 148.08 174.85 149.68
  C 182.07 151.21 185.08 160.20 185.06 166.76
  Q 185.04 175.40 178.99 181.41
  Z
  M 301.7272 153.5577
  A 3.43 0.34 2.3 0 0 298.3136 153.0803
  A 3.43 0.34 2.3 0 0 294.8728 153.2823
  A 3.43 0.34 2.3 0 0 298.2864 153.7597
  A 3.43 0.34 2.3 0 0 301.7272 153.5577
  Z
  M 258.92 160.27
  A 1.30 1.30 0.0 0 0 257.62 158.97
  A 1.30 1.30 0.0 0 0 256.32 160.27
  A 1.30 1.30 0.0 0 0 257.62 161.57
  A 1.30 1.30 0.0 0 0 258.92 160.27
  Z
  M 321.83 176.70
  C 321.19 177.91 320.40 179.64 320.64 181.00
  C 321.72 187.11 329.40 182.32 331.88 179.87
  Q 331.98 179.77 331.90 179.66
  L 331.75 179.45
  Q 331.72 179.40 331.66 179.44
  C 329.98 180.63 323.60 185.59 322.01 181.89
  C 320.75 178.96 324.50 173.86 326.34 172.70
  Q 326.75 172.44 326.68 171.96
  Q 326.57 171.17 327.06 170.53
  C 328.63 168.45 331.83 164.85 334.64 164.86
  A 0.49 0.49 0.0 0 1 334.99 165.69
  Q 332.54 168.14 330.07 170.02
  Q 329.49 170.46 328.76 170.37
  Q 328.18 170.30 328.16 170.89
  Q 328.16 170.97 328.12 171.05
  Q 327.82 171.78 328.58 171.56
  Q 329.72 171.23 330.74 171.85
  Q 333.43 173.52 336.54 173.81
  Q 336.80 173.84 336.83 173.58
  L 336.83 173.57
  Q 336.86 173.38 336.66 173.33
  Q 333.98 172.77 331.34 171.48
  Q 329.85 170.76 331.22 169.83
  Q 334.35 167.71 335.60 165.12
  Q 335.99 164.31 335.10 164.19
  C 332.30 163.81 329.34 166.51 327.50 168.34
  A 0.73 0.73 0.0 0 1 326.41 168.27
  L 323.91 165.05
  Q 323.82 164.93 323.70 165.02
  L 323.48 165.20
  Q 323.33 165.32 323.42 165.49
  Q 324.38 167.27 325.93 168.45
  Q 326.57 168.92 326.22 169.63
  Q 323.58 174.98 317.09 177.57
  C 314.33 178.67 312.48 175.83 313.62 173.42
  Q 315.63 169.14 319.32 167.62
  Q 319.67 167.48 319.46 167.17
  L 319.29 166.90
  Q 319.23 166.82 319.14 166.85
  L 316.98 167.67
  Q 316.31 167.93 315.85 167.38
  Q 315.57 167.04 315.10 166.97
  Q 314.65 166.91 314.94 167.26
  Q 315.27 167.65 315.76 167.75
  A 0.54 0.54 0.0 0 1 316.00 168.70
  C 313.49 170.80 310.02 175.36 313.75 178.14
  C 316.23 179.97 319.24 177.27 321.36 176.22
  Q 322.34 175.73 321.83 176.70
  Z
  M 131.27 242.48
  L 131.62 242.51
  Q 132.11 242.56 132.16 242.07
  Q 134.79 216.04 148.57 193.23
  A 0.15 0.14 14.5 0 0 148.44 193.01
  L 147.12 193.06
  A 0.58 0.57 14.6 0 0 146.65 193.33
  Q 133.22 215.53 130.60 241.66
  Q 130.52 242.41 131.27 242.48
  Z
  M 344.78 193.62
  C 353.99 208.56 359.26 224.66 360.90 241.89
  Q 360.98 242.77 361.86 242.68
  L 362.12 242.66
  A 0.45 0.44 84.9 0 0 362.52 242.17
  Q 359.96 216.03 346.56 193.58
  Q 346.16 192.92 345.39 193.01
  L 345.05 193.06
  Q 344.48 193.13 344.78 193.62
  Z
  M 142.08 222.77
  Q 139.34 233.75 138.49 242.80
  Q 138.47 243.05 138.72 243.07
  L 138.99 243.10
  Q 139.52 243.15 139.55 242.61
  Q 139.92 236.35 141.21 230.86
  Q 142.90 223.62 145.97 215.06
  Q 149.37 205.58 154.51 197.60
  Q 154.63 197.41 154.47 197.26
  L 154.23 197.02
  Q 153.89 196.69 153.65 197.10
  Q 146.60 209.15 142.81 220.26
  Q 142.40 221.45 142.08 222.77
  Z
  M 355.52 235.64
  Q 351.99 214.82 341.16 196.93
  Q 341.06 196.76 340.89 196.87
  L 340.65 197.01
  Q 340.33 197.21 340.53 197.53
  Q 350.09 213.10 353.64 230.18
  Q 354.91 236.31 355.71 243.40
  Q 355.73 243.65 355.98 243.62
  L 356.28 243.58
  Q 356.76 243.51 356.69 243.03
  Q 356.15 239.37 355.52 235.64
  Z
  M 236.90 271.74
  C 236.75 266.23 239.54 259.13 245.89 258.83
  Q 252.65 258.51 254.89 264.26
  Q 256.85 269.29 256.31 275.55
  C 255.84 280.85 255.51 286.45 256.09 291.58
  Q 256.39 294.26 258.27 296.67
  A 1.72 1.71 -13.0 0 0 259.25 297.28
  Q 263.10 298.12 265.35 294.56
  Q 268.85 289.03 269.88 283.44
  C 270.96 277.53 271.33 270.64 270.99 264.35
  Q 270.39 253.10 275.96 241.49
  Q 278.57 236.07 278.63 227.13
  Q 278.66 222.91 277.10 220.15
  C 275.11 216.64 271.62 213.35 267.44 213.01
  C 262.08 212.58 257.80 213.56 252.89 215.20
  C 247.30 217.06 240.20 215.07 234.61 213.67
  C 225.06 211.28 216.29 214.40 214.98 225.00
  Q 214.78 226.56 215.07 231.48
  C 215.38 236.90 217.68 241.50 219.53 246.45
  Q 221.69 252.20 221.93 259.25
  C 222.32 271.09 221.18 284.47 228.27 294.72
  Q 230.42 297.82 234.71 296.80
  A 1.43 1.42 4.6 0 0 235.68 295.98
  Q 238.09 290.31 237.69 285.54
  Q 237.08 278.39 236.90 271.74
  Z
  M 135.5368 254.0141
  A 2.96 2.96 0.0 0 0 132.5357 251.0957
  L 130.4359 251.1250
  A 2.96 2.96 0.0 0 0 127.5175 254.1261
  L 127.5432 255.9659
  A 2.96 2.96 0.0 0 0 130.5443 258.8843
  L 132.6441 258.8550
  A 2.96 2.96 0.0 0 0 135.5625 255.8539
  L 135.5368 254.0141
  Z
  M 366.4190 254.1452
  A 3.22 3.22 0.0 0 0 363.0724 251.0570
  L 361.2738 251.1293
  A 3.22 3.22 0.0 0 0 358.1856 254.4759
  L 358.2410 255.8548
  A 3.22 3.22 0.0 0 0 361.5876 258.9430
  L 363.3862 258.8707
  A 3.22 3.22 0.0 0 0 366.4744 255.5241
  L 366.4190 254.1452
  Z
  M 143.03 286.91
  Q 154.16 321.21 183.08 341.98
  A 0.27 0.26 -53.4 0 0 183.45 341.92
  L 183.60 341.70
  Q 183.73 341.52 183.55 341.40
  Q 178.69 338.06 174.41 334.09
  Q 149.81 311.27 141.95 279.22
  Q 140.56 273.57 139.72 267.62
  A 0.29 0.29 0.0 0 0 139.40 267.37
  L 138.89 267.43
  A 0.25 0.25 0.0 0 0 138.67 267.72
  Q 140.06 277.77 143.03 286.91
  Z
  M 354.73 275.47
  Q 355.54 271.69 356.12 267.86
  Q 356.15 267.69 355.98 267.66
  L 355.71 267.62
  Q 355.36 267.57 355.31 267.92
  Q 348.67 311.98 313.75 339.71
  Q 312.63 340.59 311.37 341.34
  Q 311.03 341.55 311.24 341.89
  L 311.39 342.13
  A 0.13 0.12 -34.3 0 0 311.57 342.16
  Q 345.78 317.07 354.73 275.47
  Z
  M 131.07 268.53
  Q 131.58 273.44 132.70 278.31
  Q 142.23 320.03 176.50 346.48
  Q 177.51 347.25 179.01 347.19
  Q 180.59 347.13 179.24 346.30
  Q 174.83 343.58 170.42 339.51
  C 149.79 320.49 136.34 296.46 132.88 269.04
  Q 132.78 268.24 131.98 268.08
  L 131.64 268.01
  Q 131.00 267.88 131.07 268.53
  Z
  M 358.64 279.15
  Q 348.36 321.22 313.35 346.79
  Q 312.42 347.47 313.57 347.33
  Q 316.09 347.02 318.17 345.27
  C 328.87 336.30 338.26 326.57 345.52 314.82
  Q 358.82 293.31 362.14 268.59
  Q 362.23 267.94 361.58 267.98
  L 361.18 268.01
  Q 360.48 268.05 360.40 268.75
  Q 359.71 274.80 358.64 279.15
  Z
  M 196.4332 359.5216
  A 4.92 4.50 123.1 0 0 202.8897 357.8575
  A 4.92 4.50 123.1 0 0 201.8068 351.2784
  A 4.92 4.50 123.1 0 0 195.3503 352.9425
  A 4.92 4.50 123.1 0 0 196.4332 359.5216
  Z
  M 293.50 351.99
  C 295.02 353.26 296.47 355.00 298.22 355.91
  Q 299.20 356.42 300.20 357.01
  Q 301.18 357.58 300.52 356.66
  Q 299.81 355.66 298.45 355.12
  Q 297.94 354.92 297.51 354.57
  L 292.99 350.86
  A 0.62 0.62 0.0 0 0 291.99 351.43
  L 293.39 361.01
  Q 293.42 361.17 293.59 361.15
  L 293.88 361.12
  Q 293.96 361.11 293.95 361.03
  C 293.75 359.07 293.90 357.24 293.18 355.31
  Q 292.61 353.81 292.81 352.26
  Q 292.91 351.50 293.50 351.99
  Z
  M 286.6825 354.4523
  A 0.32 0.32 0.0 0 0 286.2523 354.3117
  L 286.2167 354.3298
  A 0.32 0.32 0.0 0 0 286.0761 354.7599
  L 290.0575 362.6077
  A 0.32 0.32 0.0 0 0 290.4877 362.7483
  L 290.5233 362.7302
  A 0.32 0.32 0.0 0 0 290.6639 362.3001
  L 286.6825 354.4523
  Z
  M 207.46 355.19
  L 204.07 362.81
  A 0.75 0.75 0.0 0 0 204.45 363.80
  L 206.73 364.81
  A 4.58 4.39 24.0 0 0 212.70 362.66
  L 213.13 361.70
  A 4.58 4.39 24.0 0 0 210.73 355.82
  L 208.45 354.81
  A 0.75 0.75 0.0 0 0 207.46 355.19
  Z
  M 284.99 361.46
  A 2.02 2.02 0.0 0 1 285.19 364.62
  Q 284.22 365.49 282.46 365.76
  C 278.28 366.41 275.94 359.88 279.88 357.78
  C 280.91 357.22 282.29 357.59 283.41 357.76
  Q 283.76 357.81 283.79 357.45
  Q 283.80 357.25 283.61 357.19
  C 279.39 355.85 276.14 358.79 277.46 362.92
  C 278.23 365.36 280.95 367.30 283.52 366.18
  Q 285.06 365.50 286.46 364.45
  Q 286.86 364.14 286.69 363.66
  L 285.86 361.40
  Q 285.62 360.77 284.97 360.92
  L 283.32 361.31
  Q 283.31 361.31 283.32 361.32
  L 283.55 361.55
  Q 283.68 361.68 283.85 361.61
  Q 284.71 361.27 284.99 361.46
  Z
  M 218.0523 369.0672
  A 4.93 4.53 104.3 0 0 223.6596 365.4089
  A 4.93 4.53 104.3 0 0 220.4877 359.5128
  A 4.93 4.53 104.3 0 0 214.8804 363.1711
  A 4.93 4.53 104.3 0 0 218.0523 369.0672
  Z
  M 272.1879 370.0463
  A 4.91 4.50 76.6 0 0 275.4275 364.2271
  A 4.91 4.50 76.6 0 0 269.9121 360.4937
  A 4.91 4.50 76.6 0 0 266.6725 366.3129
  A 4.91 4.50 76.6 0 0 272.1879 370.0463
  Z
  M 233.24 370.93
  A 0.15 0.15 0.0 0 1 232.96 370.97
  L 227.65 361.32
  A 0.15 0.15 0.0 0 0 227.37 361.37
  L 225.65 370.91
  A 0.15 0.15 0.0 0 0 225.77 371.08
  L 226.22 371.16
  A 0.15 0.15 0.0 0 0 226.39 371.03
  L 227.69 363.27
  A 0.15 0.15 0.0 0 1 227.97 363.22
  L 233.34 372.99
  A 0.15 0.15 0.0 0 0 233.62 372.94
  L 235.25 363.01
  A 0.15 0.15 0.0 0 0 235.12 362.84
  L 234.77 362.80
  A 0.15 0.15 0.0 0 0 234.61 362.93
  L 233.24 370.93
  Z
  M 265.75 371.19
  A 0.15 0.15 0.0 0 0 265.59 371.11
  L 260.08 371.99
  A 0.15 0.15 0.0 0 1 259.91 371.86
  L 258.59 363.20
  A 0.15 0.15 0.0 0 0 258.39 363.08
  L 257.97 363.24
  A 0.15 0.15 0.0 0 0 257.87 363.40
  L 259.31 372.47
  A 0.15 0.15 0.0 0 0 259.48 372.60
  L 265.77 371.70
  A 0.15 0.15 0.0 0 0 265.88 371.49
  L 265.75 371.19
  Z
  M 240.73 364.54
  L 240.24 372.95
  Q 240.23 373.14 240.41 373.16
  L 240.74 373.19
  Q 240.89 373.21 240.90 373.05
  L 241.36 365.44
  Q 241.50 363.25 243.56 364.00
  L 244.52 364.35
  Q 244.73 364.42 244.75 364.20
  L 244.79 363.79
  Q 244.81 363.58 244.60 363.56
  Q 240.92 363.20 237.76 363.26
  Q 236.54 363.28 237.69 363.69
  Q 238.70 364.04 239.92 363.82
  A 0.69 0.69 0.0 0 1 240.73 364.54
  Z
  M 251.5649 373.1720
  A 4.94 4.52 83.9 0 0 255.5344 367.7797
  A 4.94 4.52 83.9 0 0 250.5151 363.3480
  A 4.94 4.52 83.9 0 0 246.5456 368.7403
  A 4.94 4.52 83.9 0 0 251.5649 373.1720
  Z"
/>
<path fill="#0e0b09" d="
  M 240.72 150.36
  Q 239.84 151.27 238.73 151.76
  A 0.28 0.28 0.0 0 1 238.37 151.62
  L 238.26 151.39
  A 0.05 0.05 0.0 0 1 238.29 151.32
  Q 240.36 150.72 240.36 148.33
  C 240.35 146.65 239.14 145.37 237.48 146.06
  C 233.53 147.72 232.30 152.41 232.99 156.34
  Q 233.28 157.98 234.47 158.88
  C 236.67 160.56 238.36 158.53 239.50 156.86
  C 240.63 155.22 240.51 152.36 240.72 150.36
  C 242.70 152.46 240.23 155.41 241.89 157.72
  A 1.60 1.59 43.0 0 0 244.55 157.63
  C 245.94 155.33 247.29 152.89 247.14 150.08
  Q 246.76 142.73 248.77 136.09
  C 249.27 134.43 251.04 130.74 253.33 131.34
  A 2.14 2.12 -84.6 0 1 254.91 133.27
  C 255.22 138.17 251.89 145.12 249.49 148.98
  Q 248.36 150.79 248.40 152.60
  Q 248.45 155.68 249.54 158.08
  A 1.75 1.74 -28.1 0 0 252.05 158.84
  C 254.21 157.48 255.60 153.48 256.54 151.18
  Q 256.58 151.08 256.67 151.13
  L 256.91 151.26
  Q 257.10 151.36 257.04 151.56
  Q 255.69 155.69 253.32 158.75
  C 252.06 160.36 249.71 160.42 248.62 158.53
  Q 247.46 156.52 247.44 154.50
  Q 247.44 153.80 247.06 154.39
  C 246.03 155.97 244.43 160.87 241.51 158.66
  A 1.55 1.50 7.2 0 1 241.03 158.06
  L 240.75 157.40
  Q 240.43 156.68 239.94 157.30
  C 239.12 158.34 238.27 159.66 236.90 159.98
  Q 233.68 160.74 232.18 157.97
  Q 231.93 157.50 231.97 156.97
  L 232.00 156.56
  Q 232.06 155.73 231.57 156.40
  Q 230.76 157.51 230.19 158.80
  C 229.03 161.42 225.78 161.67 224.08 159.38
  C 223.37 158.42 223.09 157.11 222.72 155.96
  Q 222.41 154.99 222.12 155.97
  C 221.63 157.60 221.16 160.03 219.93 161.26
  C 218.12 163.09 215.76 161.50 215.42 159.27
  Q 215.03 156.66 214.92 153.97
  A 1.48 1.46 14.3 0 0 214.19 152.76
  Q 212.74 151.92 212.07 153.28
  Q 209.46 158.55 209.87 164.86
  Q 209.91 165.43 209.37 165.27
  L 209.03 165.17
  Q 208.87 165.13 208.87 164.97
  Q 208.59 159.02 207.13 153.84
  A 1.10 1.10 0.0 0 0 205.33 153.33
  Q 204.62 153.98 204.59 155.02
  C 204.51 158.42 204.64 161.91 203.71 165.30
  C 202.07 171.26 195.16 170.88 193.02 165.65
  Q 191.08 160.93 193.40 157.44
  C 194.51 155.78 197.22 154.92 198.62 156.80
  C 201.22 160.28 198.57 163.97 194.82 164.94
  Q 194.05 165.14 194.47 165.80
  C 197.55 170.69 202.89 169.08 203.39 163.50
  Q 203.74 159.50 203.88 155.48
  Q 203.96 153.12 205.73 152.31
  A 1.31 1.31 0.0 0 1 207.12 152.49
  Q 208.80 153.85 208.85 156.30
  Q 208.92 159.08 209.97 156.51
  C 210.48 155.25 210.74 154.07 211.54 152.91
  C 212.93 150.89 215.43 151.76 215.86 154.08
  Q 216.31 156.46 216.48 158.98
  Q 216.58 160.40 217.68 160.92
  A 1.80 1.79 -65.6 0 0 220.10 160.01
  Q 222.49 154.52 221.20 148.48
  C 220.85 146.85 221.25 144.83 221.35 143.15
  Q 221.50 140.63 222.79 138.50
  A 1.16 1.16 0.0 0 1 224.84 138.63
  C 225.60 140.32 224.96 143.62 224.73 145.45
  A 0.69 0.69 0.0 0 0 225.69 146.17
  L 231.53 143.58
  Q 231.61 143.54 231.64 143.62
  L 231.76 143.85
  Q 231.80 143.94 231.71 143.99
  Q 228.35 145.98 224.94 146.93
  A 1.72 1.71 83.1 0 0 223.69 148.53
  C 223.64 150.26 222.61 151.33 222.98 153.17
  Q 223.71 156.78 225.29 159.03
  C 226.25 160.40 228.27 160.40 229.23 158.96
  Q 231.04 156.25 231.34 153.52
  C 231.71 150.00 235.55 143.46 240.00 145.79
  Q 240.45 146.03 240.62 146.51
  Q 241.35 148.52 240.72 150.36
  Z
  M 254.86 132.72
  L 251.35 131.75
  A 0.15 0.15 0.0 0 0 251.17 131.86
  L 250.61 133.88
  A 15.23 1.97 -74.5 0 0 248.43 149.08
  L 248.43 149.08
  A 15.23 1.97 -74.5 0 0 254.40 134.93
  L 254.96 132.91
  A 0.15 0.15 0.0 0 0 254.86 132.72
  Z
  M 222.4907 149.9009
  A 5.59 0.99 97.6 0 0 224.2113 144.4909
  A 5.59 0.99 97.6 0 0 223.9693 138.8191
  A 5.59 0.99 97.6 0 0 222.2487 144.2291
  A 5.59 0.99 97.6 0 0 222.4907 149.9009
  Z
  M 194.5347 164.1912
  A 4.08 2.65 109.7 0 0 198.4049 161.2433
  A 4.08 2.65 109.7 0 0 197.2853 156.5088
  A 4.08 2.65 109.7 0 0 193.4151 159.4567
  A 4.08 2.65 109.7 0 0 194.5347 164.1912
  Z"
/>
<path fill="#d9cfc6" d="
  M 254.86 132.72
  A 0.15 0.15 0.0 0 1 254.96 132.91
  L 254.40 134.93
  A 15.23 1.97 -74.5 0 1 248.43 149.08
  L 248.43 149.08
  A 15.23 1.97 -74.5 0 1 250.61 133.88
  L 251.17 131.86
  A 0.15 0.15 0.0 0 1 251.35 131.75
  L 254.86 132.72
  Z"
/>
<path fill="#0e0b09" d="
  M 264.86 154.90
  C 260.33 157.98 261.30 163.00 266.02 165.57
  C 270.16 167.83 277.38 168.56 280.57 164.15
  C 285.38 157.50 276.46 152.64 272.37 149.45
  C 268.82 146.69 266.96 143.10 268.91 138.63
  C 273.58 127.96 293.06 134.50 282.83 146.43
  A 0.27 0.26 -48.7 0 1 282.45 146.46
  L 282.23 146.27
  Q 282.15 146.19 282.22 146.11
  C 286.34 141.10 286.17 135.17 278.59 134.19
  Q 272.84 133.45 270.27 137.99
  C 264.71 147.81 284.45 150.10 283.51 159.22
  Q 282.69 167.22 274.64 168.08
  C 269.73 168.61 261.96 166.42 261.20 160.52
  Q 260.73 156.81 264.71 154.12
  Q 264.85 154.02 264.89 154.19
  L 264.98 154.57
  A 0.32 0.31 66.1 0 1 264.86 154.90
  Z"
/>
<ellipse fill="#d9cfc6" cx="0.00" cy="0.00" transform="translate(223.23,144.36) rotate(97.6)" rx="5.59" ry="0.99"/>
<path fill="#0e0b09" d="
  M 295.56 166.01
  Q 295.56 164.68 294.53 165.51
  Q 291.95 167.58 289.59 166.65
  C 285.43 165.00 289.08 155.65 290.24 152.80
  A 0.98 0.98 0.0 0 0 289.70 151.52
  Q 287.60 150.65 286.33 148.66
  Q 286.26 148.55 286.35 148.47
  L 286.57 148.28
  Q 286.61 148.25 286.64 148.29
  Q 288.16 149.95 290.04 151.22
  Q 290.63 151.62 291.00 151.01
  C 292.20 149.00 294.16 145.76 296.40 144.75
  A 1.13 1.13 0.0 0 1 297.98 145.97
  C 297.56 148.37 295.60 150.55 294.47 152.62
  Q 294.25 153.04 293.79 153.14
  Q 292.77 153.36 292.12 152.89
  Q 291.42 152.38 292.29 152.36
  Q 292.75 152.35 293.21 152.41
  Q 293.68 152.48 293.93 152.08
  L 297.35 146.63
  A 0.69 0.69 0.0 0 0 296.66 145.58
  Q 295.86 145.69 295.35 146.36
  C 293.84 148.31 290.46 152.55 290.80 155.02
  A 1.35 1.35 0.0 0 1 290.63 155.90
  Q 288.65 159.32 288.77 163.40
  C 288.83 165.14 290.20 166.70 292.04 165.99
  Q 295.06 164.83 296.79 162.15
  C 298.65 159.27 303.25 156.06 306.78 157.94
  C 308.21 158.71 308.71 160.76 307.75 162.11
  Q 307.00 163.17 306.83 164.40
  C 306.53 166.63 302.57 169.93 305.16 171.77
  A 1.33 1.32 -45.6 0 0 306.71 171.75
  Q 309.62 169.58 312.58 166.51
  C 314.03 165.01 314.14 163.06 315.40 161.45
  Q 315.59 161.21 315.84 161.37
  L 316.06 161.50
  Q 316.62 161.86 316.32 162.46
  Q 315.61 163.88 314.85 165.37
  Q 314.27 166.51 313.29 167.27
  C 310.91 169.10 309.35 171.09 306.65 172.51
  C 304.82 173.47 303.20 171.57 303.35 169.84
  A 0.44 0.43 -6.3 0 0 302.78 169.39
  C 301.68 169.74 300.40 170.69 299.24 170.46
  Q 295.56 169.71 295.56 166.01
  Z
  M 304.47 163.30
  Q 304.95 163.00 305.49 163.00
  Q 306.06 163.00 306.48 162.60
  Q 307.18 161.93 307.45 161.12
  A 2.16 2.16 0.0 0 0 305.68 158.30
  C 301.09 157.68 297.26 162.47 296.93 166.53
  Q 296.73 168.95 299.09 169.85
  Q 299.65 170.06 300.17 169.76
  C 301.69 168.87 303.24 168.95 304.26 167.27
  Q 305.11 165.88 306.11 164.63
  Q 306.60 164.02 305.85 163.81
  Q 305.26 163.66 304.61 163.71
  Q 303.71 163.78 304.47 163.30
  Z"
/>
<path fill="#d9cfc6" d="
  M 240.72 150.36
  C 240.51 152.36 240.63 155.22 239.50 156.86
  C 238.36 158.53 236.67 160.56 234.47 158.88
  Q 233.28 157.98 232.99 156.34
  C 232.30 152.41 233.53 147.72 237.48 146.06
  C 239.14 145.37 240.35 146.65 240.36 148.33
  Q 240.36 150.72 238.29 151.32
  A 0.05 0.05 0.0 0 0 238.26 151.39
  L 238.37 151.62
  A 0.28 0.28 0.0 0 0 238.73 151.76
  Q 239.84 151.27 240.72 150.36
  Z"
/>
<path fill="#0e0b09" d="
  M 216.68 146.34
  L 219.93 146.95
  Q 221.19 147.18 219.93 147.44
  Q 218.17 147.81 216.51 146.78
  Q 215.39 146.09 216.68 146.34
  Z"
/>
<path fill="#0e0b09" d="
  M 179.31 181.90
  L 178.99 181.41
  Q 185.04 175.40 185.06 166.76
  C 185.08 160.20 182.07 151.21 174.85 149.68
  C 167.33 148.08 160.36 155.74 158.38 162.20
  Q 158.32 162.38 158.14 162.32
  L 157.88 162.22
  Q 157.69 162.15 157.75 161.96
  Q 161.05 152.23 170.61 148.96
  C 180.46 145.59 186.20 155.97 186.53 164.00
  Q 186.98 174.60 179.31 181.90
  Z"
/>
<ellipse fill="#0e0b09" cx="0.00" cy="0.00" transform="translate(298.30,153.42) rotate(2.3)" rx="3.43" ry="0.34"/>
<ellipse fill="#d9cfc6" cx="0.00" cy="0.00" transform="translate(195.91,160.35) rotate(109.7)" rx="4.08" ry="2.65"/>
<path fill="#5a2c24" d="
  M 178.99 181.41
  L 179.31 181.90
  Q 178.65 182.23 178.67 183.18
  Q 178.68 183.99 177.91 183.73
  Q 177.73 183.66 177.52 183.68
  Q 176.97 183.74 176.48 184.00
  C 171.42 186.65 166.76 184.44 166.22 178.40
  Q 166.14 177.51 166.41 176.68
  Q 166.63 175.97 166.70 176.71
  Q 166.97 179.45 168.41 181.78
  Q 169.89 184.18 172.71 184.00
  Q 173.25 183.96 174.99 183.85
  Q 177.79 183.67 175.82 181.66
  C 170.31 176.05 164.56 166.15 164.22 157.62
  Q 164.21 157.50 164.29 157.39
  Q 164.37 157.28 164.53 157.32
  Q 164.64 157.34 164.67 157.45
  Q 168.93 170.66 177.25 181.74
  Q 177.56 182.16 178.07 182.01
  Q 178.53 181.88 178.99 181.41
  Z"
/>
<path fill="#d9cfc6" d="
  M 304.61 163.71
  Q 305.26 163.66 305.85 163.81
  Q 306.60 164.02 306.11 164.63
  Q 305.11 165.88 304.26 167.27
  C 303.24 168.95 301.69 168.87 300.17 169.76
  Q 299.65 170.06 299.09 169.85
  Q 296.73 168.95 296.93 166.53
  C 297.26 162.47 301.09 157.68 305.68 158.30
  A 2.16 2.16 0.0 0 1 307.45 161.12
  Q 307.18 161.93 306.48 162.60
  Q 306.06 163.00 305.49 163.00
  Q 304.95 163.00 304.47 163.30
  Q 303.71 163.78 304.61 163.71
  Z"
/>
<circle fill="#0e0b09" cx="257.62" cy="160.27" r="1.30"/>
<path fill="#0e0b09" d="
  M 321.36 176.22
  C 319.24 177.27 316.23 179.97 313.75 178.14
  C 310.02 175.36 313.49 170.80 316.00 168.70
  A 0.54 0.54 0.0 0 0 315.76 167.75
  Q 315.27 167.65 314.94 167.26
  Q 314.65 166.91 315.10 166.97
  Q 315.57 167.04 315.85 167.38
  Q 316.31 167.93 316.98 167.67
  L 319.14 166.85
  Q 319.23 166.82 319.29 166.90
  L 319.46 167.17
  Q 319.67 167.48 319.32 167.62
  Q 315.63 169.14 313.62 173.42
  C 312.48 175.83 314.33 178.67 317.09 177.57
  Q 323.58 174.98 326.22 169.63
  Q 326.57 168.92 325.93 168.45
  Q 324.38 167.27 323.42 165.49
  Q 323.33 165.32 323.48 165.20
  L 323.70 165.02
  Q 323.82 164.93 323.91 165.05
  L 326.41 168.27
  A 0.73 0.73 0.0 0 0 327.50 168.34
  C 329.34 166.51 332.30 163.81 335.10 164.19
  Q 335.99 164.31 335.60 165.12
  Q 334.35 167.71 331.22 169.83
  Q 329.85 170.76 331.34 171.48
  Q 333.98 172.77 336.66 173.33
  Q 336.86 173.38 336.83 173.57
  L 336.83 173.58
  Q 336.80 173.84 336.54 173.81
  Q 333.43 173.52 330.74 171.85
  Q 329.72 171.23 328.58 171.56
  Q 327.82 171.78 328.12 171.05
  Q 328.16 170.97 328.16 170.89
  Q 328.18 170.30 328.76 170.37
  Q 329.49 170.46 330.07 170.02
  Q 332.54 168.14 334.99 165.69
  A 0.49 0.49 0.0 0 0 334.64 164.86
  C 331.83 164.85 328.63 168.45 327.06 170.53
  Q 326.57 171.17 326.68 171.96
  Q 326.75 172.44 326.34 172.70
  C 324.50 173.86 320.75 178.96 322.01 181.89
  C 323.60 185.59 329.98 180.63 331.66 179.44
  Q 331.72 179.40 331.75 179.45
  L 331.90 179.66
  Q 331.98 179.77 331.88 179.87
  C 329.40 182.32 321.72 187.11 320.64 181.00
  C 320.40 179.64 321.19 177.91 321.83 176.70
  Q 322.34 175.73 321.36 176.22
  Z"
/>
<path fill="#5a2c24" d="
  M 130.60 241.66
  Q 133.22 215.53 146.65 193.33
  A 0.58 0.57 14.6 0 1 147.12 193.06
  L 148.44 193.01
  A 0.15 0.14 14.5 0 1 148.57 193.23
  Q 134.79 216.04 132.16 242.07
  Q 132.11 242.56 131.62 242.51
  L 131.27 242.48
  Q 130.52 242.41 130.60 241.66
  Z"
/>
<path fill="#5a2c24" d="
  M 360.90 241.89
  C 359.26 224.66 353.99 208.56 344.78 193.62
  Q 344.48 193.13 345.05 193.06
  L 345.39 193.01
  Q 346.16 192.92 346.56 193.58
  Q 359.96 216.03 362.52 242.17
  A 0.45 0.44 84.9 0 1 362.12 242.66
  L 361.86 242.68
  Q 360.98 242.77 360.90 241.89
  Z"
/>
<path fill="#5a2c24" d="
  M 142.08 222.77
  Q 142.40 221.45 142.81 220.26
  Q 146.60 209.15 153.65 197.10
  Q 153.89 196.69 154.23 197.02
  L 154.47 197.26
  Q 154.63 197.41 154.51 197.60
  Q 149.37 205.58 145.97 215.06
  Q 142.90 223.62 141.21 230.86
  Q 139.92 236.35 139.55 242.61
  Q 139.52 243.15 138.99 243.10
  L 138.72 243.07
  Q 138.47 243.05 138.49 242.80
  Q 139.34 233.75 142.08 222.77
  Z"
/>
<path fill="#5a2c24" d="
  M 355.52 235.64
  Q 356.15 239.37 356.69 243.03
  Q 356.76 243.51 356.28 243.58
  L 355.98 243.62
  Q 355.73 243.65 355.71 243.40
  Q 354.91 236.31 353.64 230.18
  Q 350.09 213.10 340.53 197.53
  Q 340.33 197.21 340.65 197.01
  L 340.89 196.87
  Q 341.06 196.76 341.16 196.93
  Q 351.99 214.82 355.52 235.64
  Z"
/>
<path fill="#eaeaea" d="
  M 236.90 271.74
  Q 237.08 278.39 237.69 285.54
  Q 238.09 290.31 235.68 295.98
  A 1.43 1.42 4.6 0 1 234.71 296.80
  Q 230.42 297.82 228.27 294.72
  C 221.18 284.47 222.32 271.09 221.93 259.25
  Q 221.69 252.20 219.53 246.45
  C 217.68 241.50 215.38 236.90 215.07 231.48
  Q 214.78 226.56 214.98 225.00
  C 216.29 214.40 225.06 211.28 234.61 213.67
  C 240.20 215.07 247.30 217.06 252.89 215.20
  C 257.80 213.56 262.08 212.58 267.44 213.01
  C 271.62 213.35 275.11 216.64 277.10 220.15
  Q 278.66 222.91 278.63 227.13
  Q 278.57 236.07 275.96 241.49
  Q 270.39 253.10 270.99 264.35
  C 271.33 270.64 270.96 277.53 269.88 283.44
  Q 268.85 289.03 265.35 294.56
  Q 263.10 298.12 259.25 297.28
  A 1.72 1.71 -13.0 0 1 258.27 296.67
  Q 256.39 294.26 256.09 291.58
  C 255.51 286.45 255.84 280.85 256.31 275.55
  Q 256.85 269.29 254.89 264.26
  Q 252.65 258.51 245.89 258.83
  C 239.54 259.13 236.75 266.23 236.90 271.74
  Z"
/>
<rect fill="#5a2c24" x="-4.01" y="-3.88" transform="translate(131.54,254.99) rotate(-0.8)" width="8.02" height="7.76" rx="2.96"/>
<rect fill="#5a2c24" x="-4.12" y="-3.91" transform="translate(362.33,255.00) rotate(-2.3)" width="8.24" height="7.82" rx="3.22"/>
<path fill="#5a2c24" d="
  M 143.03 286.91
  Q 140.06 277.77 138.67 267.72
  A 0.25 0.25 0.0 0 1 138.89 267.43
  L 139.40 267.37
  A 0.29 0.29 0.0 0 1 139.72 267.62
  Q 140.56 273.57 141.95 279.22
  Q 149.81 311.27 174.41 334.09
  Q 178.69 338.06 183.55 341.40
  Q 183.73 341.52 183.60 341.70
  L 183.45 341.92
  A 0.27 0.26 -53.4 0 1 183.08 341.98
  Q 154.16 321.21 143.03 286.91
  Z"
/>
<path fill="#5a2c24" d="
  M 354.73 275.47
  Q 345.78 317.07 311.57 342.16
  A 0.13 0.12 -34.3 0 1 311.39 342.13
  L 311.24 341.89
  Q 311.03 341.55 311.37 341.34
  Q 312.63 340.59 313.75 339.71
  Q 348.67 311.98 355.31 267.92
  Q 355.36 267.57 355.71 267.62
  L 355.98 267.66
  Q 356.15 267.69 356.12 267.86
  Q 355.54 271.69 354.73 275.47
  Z"
/>
<path fill="#5a2c24" d="
  M 131.07 268.53
  Q 131.00 267.88 131.64 268.01
  L 131.98 268.08
  Q 132.78 268.24 132.88 269.04
  C 136.34 296.46 149.79 320.49 170.42 339.51
  Q 174.83 343.58 179.24 346.30
  Q 180.59 347.13 179.01 347.19
  Q 177.51 347.25 176.50 346.48
  Q 142.23 320.03 132.70 278.31
  Q 131.58 273.44 131.07 268.53
  Z"
/>
<path fill="#5a2c24" d="
  M 358.64 279.15
  Q 359.71 274.80 360.40 268.75
  Q 360.48 268.05 361.18 268.01
  L 361.58 267.98
  Q 362.23 267.94 362.14 268.59
  Q 358.82 293.31 345.52 314.82
  C 338.26 326.57 328.87 336.30 318.17 345.27
  Q 316.09 347.02 313.57 347.33
  Q 312.42 347.47 313.35 346.79
  Q 348.36 321.22 358.64 279.15
  Z"
/>
<path fill="#0e0b09" d="
  M 196.4332 359.5216
  A 4.92 4.50 123.1 0 1 195.3503 352.9425
  A 4.92 4.50 123.1 0 1 201.8068 351.2784
  A 4.92 4.50 123.1 0 1 202.8897 357.8575
  A 4.92 4.50 123.1 0 1 196.4332 359.5216
  Z
  M 196.7762 359.0453
  A 4.32 3.81 122.7 0 0 202.3162 357.4683
  A 4.32 3.81 122.7 0 0 201.4438 351.7747
  A 4.32 3.81 122.7 0 0 195.9038 353.3517
  A 4.32 3.81 122.7 0 0 196.7762 359.0453
  Z"
/>
<path fill="#0e0b09" d="
  M 292.81 352.26
  Q 292.61 353.81 293.18 355.31
  C 293.90 357.24 293.75 359.07 293.95 361.03
  Q 293.96 361.11 293.88 361.12
  L 293.59 361.15
  Q 293.42 361.17 293.39 361.01
  L 291.99 351.43
  A 0.62 0.62 0.0 0 1 292.99 350.86
  L 297.51 354.57
  Q 297.94 354.92 298.45 355.12
  Q 299.81 355.66 300.52 356.66
  Q 301.18 357.58 300.20 357.01
  Q 299.20 356.42 298.22 355.91
  C 296.47 355.00 295.02 353.26 293.50 351.99
  Q 292.91 351.50 292.81 352.26
  Z"
/>
<ellipse fill="#d9cfc6" cx="0.00" cy="0.00" transform="translate(199.11,355.41) rotate(122.7)" rx="4.32" ry="3.81"/>
<rect fill="#0e0b09" x="-0.34" y="-4.72" transform="translate(288.37,358.53) rotate(-26.9)" width="0.68" height="9.44" rx="0.32"/>
<path fill="#0e0b09" d="
  M 207.46 355.19
  A 0.75 0.75 0.0 0 1 208.45 354.81
  L 210.73 355.82
  A 4.58 4.39 24.0 0 1 213.13 361.70
  L 212.70 362.66
  A 4.58 4.39 24.0 0 1 206.73 364.81
  L 204.45 363.80
  A 0.75 0.75 0.0 0 1 204.07 362.81
  L 207.46 355.19
  Z
  M 207.91 355.99
  L 204.94 362.51
  A 0.76 0.76 0.0 0 0 205.31 363.51
  L 206.82 364.20
  A 4.04 3.84 24.5 0 0 212.09 362.38
  L 212.51 361.47
  A 4.04 3.84 24.5 0 0 210.42 356.30
  L 208.91 355.62
  A 0.76 0.76 0.0 0 0 207.91 355.99
  Z"
/>
<path fill="#d9cfc6" d="
  M 207.91 355.99
  A 0.76 0.76 0.0 0 1 208.91 355.62
  L 210.42 356.30
  A 4.04 3.84 24.5 0 1 212.51 361.47
  L 212.09 362.38
  A 4.04 3.84 24.5 0 1 206.82 364.20
  L 205.31 363.51
  A 0.76 0.76 0.0 0 1 204.94 362.51
  L 207.91 355.99
  Z"
/>
<path fill="#0e0b09" d="
  M 284.99 361.46
  Q 284.71 361.27 283.85 361.61
  Q 283.68 361.68 283.55 361.55
  L 283.32 361.32
  Q 283.31 361.31 283.32 361.31
  L 284.97 360.92
  Q 285.62 360.77 285.86 361.40
  L 286.69 363.66
  Q 286.86 364.14 286.46 364.45
  Q 285.06 365.50 283.52 366.18
  C 280.95 367.30 278.23 365.36 277.46 362.92
  C 276.14 358.79 279.39 355.85 283.61 357.19
  Q 283.80 357.25 283.79 357.45
  Q 283.76 357.81 283.41 357.76
  C 282.29 357.59 280.91 357.22 279.88 357.78
  C 275.94 359.88 278.28 366.41 282.46 365.76
  Q 284.22 365.49 285.19 364.62
  A 2.02 2.02 0.0 0 0 284.99 361.46
  Z"
/>
<path fill="#0e0b09" d="
  M 218.0523 369.0672
  A 4.93 4.53 104.3 0 1 214.8804 363.1711
  A 4.93 4.53 104.3 0 1 220.4877 359.5128
  A 4.93 4.53 104.3 0 1 223.6596 365.4089
  A 4.93 4.53 104.3 0 1 218.0523 369.0672
  Z
  M 218.1711 368.4605
  A 4.32 3.82 104.6 0 0 222.9566 365.2429
  A 4.32 3.82 104.6 0 0 220.3489 360.0995
  A 4.32 3.82 104.6 0 0 215.5634 363.3171
  A 4.32 3.82 104.6 0 0 218.1711 368.4605
  Z"
/>
<ellipse fill="#d9cfc6" cx="0.00" cy="0.00" transform="translate(219.26,364.28) rotate(104.6)" rx="4.32" ry="3.82"/>
<path fill="#0e0b09" d="
  M 272.1879 370.0463
  A 4.91 4.50 76.6 0 1 266.6725 366.3129
  A 4.91 4.50 76.6 0 1 269.9121 360.4937
  A 4.91 4.50 76.6 0 1 275.4275 364.2271
  A 4.91 4.50 76.6 0 1 272.1879 370.0463
  Z
  M 272.1559 369.4077
  A 4.29 3.82 75.2 0 0 274.7533 364.2842
  A 4.29 3.82 75.2 0 0 269.9641 361.1123
  A 4.29 3.82 75.2 0 0 267.3667 366.2358
  A 4.29 3.82 75.2 0 0 272.1559 369.4077
  Z"
/>
<ellipse fill="#d9cfc6" cx="0.00" cy="0.00" transform="translate(271.06,365.26) rotate(75.2)" rx="4.29" ry="3.82"/>
<path fill="#0e0b09" d="
  M 233.24 370.93
  L 234.61 362.93
  A 0.15 0.15 0.0 0 1 234.77 362.80
  L 235.12 362.84
  A 0.15 0.15 0.0 0 1 235.25 363.01
  L 233.62 372.94
  A 0.15 0.15 0.0 0 1 233.34 372.99
  L 227.97 363.22
  A 0.15 0.15 0.0 0 0 227.69 363.27
  L 226.39 371.03
  A 0.15 0.15 0.0 0 1 226.22 371.16
  L 225.77 371.08
  A 0.15 0.15 0.0 0 1 225.65 370.91
  L 227.37 361.37
  A 0.15 0.15 0.0 0 1 227.65 361.32
  L 232.96 370.97
  A 0.15 0.15 0.0 0 0 233.24 370.93
  Z"
/>
<path fill="#0e0b09" d="
  M 265.75 371.19
  L 265.88 371.49
  A 0.15 0.15 0.0 0 1 265.77 371.70
  L 259.48 372.60
  A 0.15 0.15 0.0 0 1 259.31 372.47
  L 257.87 363.40
  A 0.15 0.15 0.0 0 1 257.97 363.24
  L 258.39 363.08
  A 0.15 0.15 0.0 0 1 258.59 363.20
  L 259.91 371.86
  A 0.15 0.15 0.0 0 0 260.08 371.99
  L 265.59 371.11
  A 0.15 0.15 0.0 0 1 265.75 371.19
  Z"
/>
<path fill="#0e0b09" d="
  M 239.92 363.82
  Q 238.70 364.04 237.69 363.69
  Q 236.54 363.28 237.76 363.26
  Q 240.92 363.20 244.60 363.56
  Q 244.81 363.58 244.79 363.79
  L 244.75 364.20
  Q 244.73 364.42 244.52 364.35
  L 243.56 364.00
  Q 241.50 363.25 241.36 365.44
  L 240.90 373.05
  Q 240.89 373.21 240.74 373.19
  L 240.41 373.16
  Q 240.23 373.14 240.24 372.95
  L 240.73 364.54
  A 0.69 0.69 0.0 0 0 239.92 363.82
  Z"
/>
<path fill="#0e0b09" d="
  M 251.5649 373.1720
  A 4.94 4.52 83.9 0 1 246.5456 368.7403
  A 4.94 4.52 83.9 0 1 250.5151 363.3480
  A 4.94 4.52 83.9 0 1 255.5344 367.7797
  A 4.94 4.52 83.9 0 1 251.5649 373.1720
  Z
  M 251.2666 372.6041
  A 4.33 3.84 87.0 0 0 254.8747 368.0790
  A 4.33 3.84 87.0 0 0 250.8134 363.9559
  A 4.33 3.84 87.0 0 0 247.2053 368.4810
  A 4.33 3.84 87.0 0 0 251.2666 372.6041
  Z"
/>
<ellipse fill="#d9cfc6" cx="0.00" cy="0.00" transform="translate(251.04,368.28) rotate(87.0)" rx="4.33" ry="3.84"/>
</svg>
